<?xml version="1.0" encoding="UTF-8" standalone="no"?>
<!DOCTYPE svg PUBLIC "-//W3C//DTD SVG 1.1//EN"
 "http://www.w3.org/Graphics/SVG/1.1/DTD/svg11.dtd">
<!-- Generated by graphviz version 2.38.0 (20140413.2041)
 -->
<!-- Title: %3 Pages: 1 -->
<svg width="1185pt" height="548pt"
 viewBox="0.00 0.00 1185.19 548.00" xmlns="http://www.w3.org/2000/svg" xmlns:xlink="http://www.w3.org/1999/xlink">
<g id="graph0" class="graph" transform="scale(1 1) rotate(0) translate(4 544)">
<title>%3</title>
<polygon fill="white" stroke="none" points="-4,4 -4,-544 1181.19,-544 1181.19,4 -4,4"/>
<!-- [root] aws_instance.ec2_jm -->
<g id="node1" class="node"><title>[root] aws_instance.ec2_jm</title>
<polygon fill="none" stroke="black" points="826.5,-324 691.5,-324 691.5,-288 826.5,-288 826.5,-324"/>
<text text-anchor="middle" x="759" y="-302.3" font-family="Times New Roman,serif" font-size="14.00">aws_instance.ec2_jm</text>
</g>
<!-- [root] aws_security_group.security_group_jm -->
<g id="node5" class="node"><title>[root] aws_security_group.security_group_jm</title>
<polygon fill="none" stroke="black" points="764.5,-252 525.5,-252 525.5,-216 764.5,-216 764.5,-252"/>
<text text-anchor="middle" x="645" y="-230.3" font-family="Times New Roman,serif" font-size="14.00">aws_security_group.security_group_jm</text>
</g>
<!-- [root] aws_instance.ec2_jm&#45;&gt;[root] aws_security_group.security_group_jm -->
<g id="edge1" class="edge"><title>[root] aws_instance.ec2_jm&#45;&gt;[root] aws_security_group.security_group_jm</title>
<path fill="none" stroke="black" d="M731.112,-287.876C716.207,-278.724 697.671,-267.342 681.618,-257.485"/>
<polygon fill="black" stroke="black" points="683.348,-254.44 672.995,-252.19 679.685,-260.405 683.348,-254.44"/>
</g>
<!-- [root] aws_subnet.public_subnet_01 -->
<g id="node6" class="node"><title>[root] aws_subnet.public_subnet_01</title>
<polygon fill="none" stroke="black" points="507,-252 321,-252 321,-216 507,-216 507,-252"/>
<text text-anchor="middle" x="414" y="-230.3" font-family="Times New Roman,serif" font-size="14.00">aws_subnet.public_subnet_01</text>
</g>
<!-- [root] aws_instance.ec2_jm&#45;&gt;[root] aws_subnet.public_subnet_01 -->
<g id="edge2" class="edge"><title>[root] aws_instance.ec2_jm&#45;&gt;[root] aws_subnet.public_subnet_01</title>
<path fill="none" stroke="black" d="M691.251,-291.254C638.938,-280.64 565.941,-265.829 507.979,-254.068"/>
<polygon fill="black" stroke="black" points="508.574,-250.618 498.078,-252.059 507.182,-257.478 508.574,-250.618"/>
</g>
<!-- [root] data.aws_ami.aws_linux -->
<g id="node8" class="node"><title>[root] data.aws_ami.aws_linux</title>
<polygon fill="none" stroke="black" points="826,-180 674,-180 674,-144 826,-144 826,-180"/>
<text text-anchor="middle" x="750" y="-158.3" font-family="Times New Roman,serif" font-size="14.00">data.aws_ami.aws_linux</text>
</g>
<!-- [root] aws_instance.ec2_jm&#45;&gt;[root] data.aws_ami.aws_linux -->
<g id="edge3" class="edge"><title>[root] aws_instance.ec2_jm&#45;&gt;[root] data.aws_ami.aws_linux</title>
<path fill="none" stroke="black" d="M765.36,-287.849C771.177,-269.86 778.151,-240.81 773,-216 771.124,-206.965 767.626,-197.579 763.914,-189.261"/>
<polygon fill="black" stroke="black" points="766.999,-187.598 759.542,-180.072 760.678,-190.606 766.999,-187.598"/>
</g>
<!-- [root] var.key_name -->
<g id="node13" class="node"><title>[root] var.key_name</title>
<polygon fill="none" stroke="black" points="909,-252 821,-252 821,-216 915,-216 915,-246 909,-252"/>
<polyline fill="none" stroke="black" points="909,-252 909,-246 "/>
<polyline fill="none" stroke="black" points="915,-246 909,-246 "/>
<text text-anchor="middle" x="868" y="-230.3" font-family="Times New Roman,serif" font-size="14.00">var.key_name</text>
</g>
<!-- [root] aws_instance.ec2_jm&#45;&gt;[root] var.key_name -->
<g id="edge5" class="edge"><title>[root] aws_instance.ec2_jm&#45;&gt;[root] var.key_name</title>
<path fill="none" stroke="black" d="M785.664,-287.876C799.784,-278.808 817.311,-267.552 832.561,-257.759"/>
<polygon fill="black" stroke="black" points="834.71,-260.538 841.233,-252.19 830.927,-254.648 834.71,-260.538"/>
</g>
<!-- [root] provisioner.remote&#45;exec -->
<g id="node19" class="node"><title>[root] provisioner.remote&#45;exec</title>
<ellipse fill="none" stroke="black" cx="1055" cy="-234" rx="122.379" ry="18"/>
<text text-anchor="middle" x="1055" y="-230.3" font-family="Times New Roman,serif" font-size="14.00">[root] provisioner.remote&#45;exec</text>
</g>
<!-- [root] aws_instance.ec2_jm&#45;&gt;[root] provisioner.remote&#45;exec -->
<g id="edge4" class="edge"><title>[root] aws_instance.ec2_jm&#45;&gt;[root] provisioner.remote&#45;exec</title>
<path fill="none" stroke="black" d="M826.537,-289.028C873.371,-277.953 935.648,-263.225 983.352,-251.944"/>
<polygon fill="black" stroke="black" points="984.373,-255.299 993.299,-249.591 982.762,-248.487 984.373,-255.299"/>
</g>
<!-- [root] aws_internet_gateway.igw_jm -->
<g id="node2" class="node"><title>[root] aws_internet_gateway.igw_jm</title>
<polygon fill="none" stroke="black" points="302.5,-252 119.5,-252 119.5,-216 302.5,-216 302.5,-252"/>
<text text-anchor="middle" x="211" y="-230.3" font-family="Times New Roman,serif" font-size="14.00">aws_internet_gateway.igw_jm</text>
</g>
<!-- [root] aws_vpc.vpc_jm -->
<g id="node7" class="node"><title>[root] aws_vpc.vpc_jm</title>
<polygon fill="none" stroke="black" points="324.5,-180 211.5,-180 211.5,-144 324.5,-144 324.5,-180"/>
<text text-anchor="middle" x="268" y="-158.3" font-family="Times New Roman,serif" font-size="14.00">aws_vpc.vpc_jm</text>
</g>
<!-- [root] aws_internet_gateway.igw_jm&#45;&gt;[root] aws_vpc.vpc_jm -->
<g id="edge6" class="edge"><title>[root] aws_internet_gateway.igw_jm&#45;&gt;[root] aws_vpc.vpc_jm</title>
<path fill="none" stroke="black" d="M225.09,-215.697C231.923,-207.305 240.257,-197.07 247.756,-187.861"/>
<polygon fill="black" stroke="black" points="250.472,-190.069 254.072,-180.104 245.044,-185.649 250.472,-190.069"/>
</g>
<!-- [root] aws_route_table.rt_jm -->
<g id="node3" class="node"><title>[root] aws_route_table.rt_jm</title>
<polygon fill="none" stroke="black" points="337.5,-324 196.5,-324 196.5,-288 337.5,-288 337.5,-324"/>
<text text-anchor="middle" x="267" y="-302.3" font-family="Times New Roman,serif" font-size="14.00">aws_route_table.rt_jm</text>
</g>
<!-- [root] aws_route_table.rt_jm&#45;&gt;[root] aws_internet_gateway.igw_jm -->
<g id="edge7" class="edge"><title>[root] aws_route_table.rt_jm&#45;&gt;[root] aws_internet_gateway.igw_jm</title>
<path fill="none" stroke="black" d="M253.157,-287.697C246.511,-279.389 238.422,-269.277 231.113,-260.141"/>
<polygon fill="black" stroke="black" points="233.664,-257.727 224.683,-252.104 228.197,-262.099 233.664,-257.727"/>
</g>
<!-- [root] aws_route_table_association.rta_public_subnet_01 -->
<g id="node4" class="node"><title>[root] aws_route_table_association.rta_public_subnet_01</title>
<polygon fill="none" stroke="black" points="493.5,-396 190.5,-396 190.5,-360 493.5,-360 493.5,-396"/>
<text text-anchor="middle" x="342" y="-374.3" font-family="Times New Roman,serif" font-size="14.00">aws_route_table_association.rta_public_subnet_01</text>
</g>
<!-- [root] aws_route_table_association.rta_public_subnet_01&#45;&gt;[root] aws_route_table.rt_jm -->
<g id="edge8" class="edge"><title>[root] aws_route_table_association.rta_public_subnet_01&#45;&gt;[root] aws_route_table.rt_jm</title>
<path fill="none" stroke="black" d="M323.461,-359.697C314.197,-351.05 302.838,-340.449 292.743,-331.027"/>
<polygon fill="black" stroke="black" points="295.025,-328.369 285.326,-324.104 290.249,-333.486 295.025,-328.369"/>
</g>
<!-- [root] aws_route_table_association.rta_public_subnet_01&#45;&gt;[root] aws_subnet.public_subnet_01 -->
<g id="edge9" class="edge"><title>[root] aws_route_table_association.rta_public_subnet_01&#45;&gt;[root] aws_subnet.public_subnet_01</title>
<path fill="none" stroke="black" d="M350.685,-359.871C363.118,-335.35 386.096,-290.032 400.686,-261.259"/>
<polygon fill="black" stroke="black" points="403.884,-262.691 405.284,-252.189 397.64,-259.525 403.884,-262.691"/>
</g>
<!-- [root] aws_security_group.security_group_jm&#45;&gt;[root] aws_vpc.vpc_jm -->
<g id="edge10" class="edge"><title>[root] aws_security_group.security_group_jm&#45;&gt;[root] aws_vpc.vpc_jm</title>
<path fill="none" stroke="black" d="M531.558,-215.995C475.094,-206.97 405.641,-195.031 334.813,-180.083"/>
<polygon fill="black" stroke="black" points="335.32,-176.612 324.811,-177.953 333.863,-183.459 335.32,-176.612"/>
</g>
<!-- [root] aws_subnet.public_subnet_01&#45;&gt;[root] aws_vpc.vpc_jm -->
<g id="edge11" class="edge"><title>[root] aws_subnet.public_subnet_01&#45;&gt;[root] aws_vpc.vpc_jm</title>
<path fill="none" stroke="black" d="M378.284,-215.876C358.503,-206.392 333.728,-194.513 312.674,-184.419"/>
<polygon fill="black" stroke="black" points="314.13,-181.236 303.6,-180.068 311.104,-187.548 314.13,-181.236"/>
</g>
<!-- [root] var.public_subnet_01_address_space -->
<g id="node16" class="node"><title>[root] var.public_subnet_01_address_space</title>
<polygon fill="none" stroke="black" points="565,-180 343,-180 343,-144 571,-144 571,-174 565,-180"/>
<polyline fill="none" stroke="black" points="565,-180 565,-174 "/>
<polyline fill="none" stroke="black" points="571,-174 565,-174 "/>
<text text-anchor="middle" x="457" y="-158.3" font-family="Times New Roman,serif" font-size="14.00">var.public_subnet_01_address_space</text>
</g>
<!-- [root] aws_subnet.public_subnet_01&#45;&gt;[root] var.public_subnet_01_address_space -->
<g id="edge12" class="edge"><title>[root] aws_subnet.public_subnet_01&#45;&gt;[root] var.public_subnet_01_address_space</title>
<path fill="none" stroke="black" d="M424.629,-215.697C429.628,-207.559 435.691,-197.689 441.212,-188.701"/>
<polygon fill="black" stroke="black" points="444.241,-190.457 446.493,-180.104 438.277,-186.793 444.241,-190.457"/>
</g>
<!-- [root] provider.aws -->
<g id="node11" class="node"><title>[root] provider.aws</title>
<polygon fill="none" stroke="black" points="602,-108 520.39,-90 602,-72 683.61,-90 602,-108"/>
<text text-anchor="middle" x="602" y="-86.3" font-family="Times New Roman,serif" font-size="14.00">provider.aws</text>
</g>
<!-- [root] aws_vpc.vpc_jm&#45;&gt;[root] provider.aws -->
<g id="edge13" class="edge"><title>[root] aws_vpc.vpc_jm&#45;&gt;[root] provider.aws</title>
<path fill="none" stroke="black" d="M324.832,-146.143C327.929,-145.401 331,-144.682 334,-144 408.295,-127.1 494.881,-110.539 549.076,-100.547"/>
<polygon fill="black" stroke="black" points="549.936,-103.948 559.139,-98.6991 548.671,-97.0634 549.936,-103.948"/>
</g>
<!-- [root] var.network_address_space -->
<g id="node14" class="node"><title>[root] var.network_address_space</title>
<polygon fill="none" stroke="black" points="348.5,-108 181.5,-108 181.5,-72 354.5,-72 354.5,-102 348.5,-108"/>
<polyline fill="none" stroke="black" points="348.5,-108 348.5,-102 "/>
<polyline fill="none" stroke="black" points="354.5,-102 348.5,-102 "/>
<text text-anchor="middle" x="268" y="-86.3" font-family="Times New Roman,serif" font-size="14.00">var.network_address_space</text>
</g>
<!-- [root] aws_vpc.vpc_jm&#45;&gt;[root] var.network_address_space -->
<g id="edge14" class="edge"><title>[root] aws_vpc.vpc_jm&#45;&gt;[root] var.network_address_space</title>
<path fill="none" stroke="black" d="M268,-143.697C268,-135.983 268,-126.712 268,-118.112"/>
<polygon fill="black" stroke="black" points="271.5,-118.104 268,-108.104 264.5,-118.104 271.5,-118.104"/>
</g>
<!-- [root] data.aws_ami.aws_linux&#45;&gt;[root] provider.aws -->
<g id="edge15" class="edge"><title>[root] data.aws_ami.aws_linux&#45;&gt;[root] provider.aws</title>
<path fill="none" stroke="black" d="M713.795,-143.876C690.028,-132.635 659.15,-118.03 635.869,-107.019"/>
<polygon fill="black" stroke="black" points="637.254,-103.802 626.717,-102.691 634.261,-110.13 637.254,-103.802"/>
</g>
<!-- [root] output.aws_instance_public_dns -->
<g id="node9" class="node"><title>[root] output.aws_instance_public_dns</title>
<polygon fill="none" stroke="black" points="706,-396 512,-396 512,-360 712,-360 712,-390 706,-396"/>
<polyline fill="none" stroke="black" points="706,-396 706,-390 "/>
<polyline fill="none" stroke="black" points="712,-390 706,-390 "/>
<text text-anchor="middle" x="612" y="-374.3" font-family="Times New Roman,serif" font-size="14.00">output.aws_instance_public_dns</text>
</g>
<!-- [root] output.aws_instance_public_dns&#45;&gt;[root] aws_instance.ec2_jm -->
<g id="edge20" class="edge"><title>[root] output.aws_instance_public_dns&#45;&gt;[root] aws_instance.ec2_jm</title>
<path fill="none" stroke="black" d="M647.96,-359.876C667.877,-350.392 692.822,-338.513 714.02,-328.419"/>
<polygon fill="black" stroke="black" points="715.633,-331.528 723.157,-324.068 712.623,-325.208 715.633,-331.528"/>
</g>
<!-- [root] output.aws_vpc_id -->
<g id="node10" class="node"><title>[root] output.aws_vpc_id</title>
<polygon fill="none" stroke="black" points="158.5,-324 39.5,-324 39.5,-288 164.5,-288 164.5,-318 158.5,-324"/>
<polyline fill="none" stroke="black" points="158.5,-324 158.5,-318 "/>
<polyline fill="none" stroke="black" points="164.5,-318 158.5,-318 "/>
<text text-anchor="middle" x="102" y="-302.3" font-family="Times New Roman,serif" font-size="14.00">output.aws_vpc_id</text>
</g>
<!-- [root] output.aws_vpc_id&#45;&gt;[root] aws_vpc.vpc_jm -->
<g id="edge21" class="edge"><title>[root] output.aws_vpc_id&#45;&gt;[root] aws_vpc.vpc_jm</title>
<path fill="none" stroke="black" d="M98.4603,-287.931C95.4502,-268.392 93.848,-236.455 110,-216 131.856,-188.322 168.718,-174.986 201.342,-168.609"/>
<polygon fill="black" stroke="black" points="202.072,-172.034 211.309,-166.845 200.852,-165.141 202.072,-172.034"/>
</g>
<!-- [root] var.access_key -->
<g id="node12" class="node"><title>[root] var.access_key</title>
<polygon fill="none" stroke="black" points="542,-36 446,-36 446,-0 548,-0 548,-30 542,-36"/>
<polyline fill="none" stroke="black" points="542,-36 542,-30 "/>
<polyline fill="none" stroke="black" points="548,-30 542,-30 "/>
<text text-anchor="middle" x="497" y="-14.3" font-family="Times New Roman,serif" font-size="14.00">var.access_key</text>
</g>
<!-- [root] provider.aws&#45;&gt;[root] var.access_key -->
<g id="edge24" class="edge"><title>[root] provider.aws&#45;&gt;[root] var.access_key</title>
<path fill="none" stroke="black" d="M582.741,-76.1609C568.423,-66.6155 548.501,-53.3341 531.464,-41.9759"/>
<polygon fill="black" stroke="black" points="533.124,-38.8765 522.862,-36.2416 529.241,-44.7009 533.124,-38.8765"/>
</g>
<!-- [root] var.region -->
<g id="node17" class="node"><title>[root] var.region</title>
<polygon fill="none" stroke="black" points="632,-36 566,-36 566,-0 638,-0 638,-30 632,-36"/>
<polyline fill="none" stroke="black" points="632,-36 632,-30 "/>
<polyline fill="none" stroke="black" points="638,-30 632,-30 "/>
<text text-anchor="middle" x="602" y="-14.3" font-family="Times New Roman,serif" font-size="14.00">var.region</text>
</g>
<!-- [root] provider.aws&#45;&gt;[root] var.region -->
<g id="edge25" class="edge"><title>[root] provider.aws&#45;&gt;[root] var.region</title>
<path fill="none" stroke="black" d="M602,-71.6966C602,-63.9827 602,-54.7125 602,-46.1124"/>
<polygon fill="black" stroke="black" points="605.5,-46.1043 602,-36.1043 598.5,-46.1044 605.5,-46.1043"/>
</g>
<!-- [root] var.secret_key -->
<g id="node18" class="node"><title>[root] var.secret_key</title>
<polygon fill="none" stroke="black" points="748,-36 656,-36 656,-0 754,-0 754,-30 748,-36"/>
<polyline fill="none" stroke="black" points="748,-36 748,-30 "/>
<polyline fill="none" stroke="black" points="754,-30 748,-30 "/>
<text text-anchor="middle" x="705" y="-14.3" font-family="Times New Roman,serif" font-size="14.00">var.secret_key</text>
</g>
<!-- [root] provider.aws&#45;&gt;[root] var.secret_key -->
<g id="edge26" class="edge"><title>[root] provider.aws&#45;&gt;[root] var.secret_key</title>
<path fill="none" stroke="black" d="M620.892,-76.1609C634.937,-66.6155 654.48,-53.3341 671.193,-41.9759"/>
<polygon fill="black" stroke="black" points="673.327,-44.7573 679.63,-36.2416 669.392,-38.9678 673.327,-44.7573"/>
</g>
<!-- [root] var.private_key_path -->
<g id="node15" class="node"><title>[root] var.private_key_path</title>
<polygon fill="none" stroke="black" points="128,-396 0,-396 0,-360 134,-360 134,-390 128,-396"/>
<polyline fill="none" stroke="black" points="128,-396 128,-390 "/>
<polyline fill="none" stroke="black" points="134,-390 128,-390 "/>
<text text-anchor="middle" x="67" y="-374.3" font-family="Times New Roman,serif" font-size="14.00">var.private_key_path</text>
</g>
<!-- [root] meta.count&#45;boundary (EachMode fixup) -->
<g id="node20" class="node"><title>[root] meta.count&#45;boundary (EachMode fixup)</title>
<ellipse fill="none" stroke="black" cx="195" cy="-450" rx="180.868" ry="18"/>
<text text-anchor="middle" x="195" y="-446.3" font-family="Times New Roman,serif" font-size="14.00">[root] meta.count&#45;boundary (EachMode fixup)</text>
</g>
<!-- [root] meta.count&#45;boundary (EachMode fixup)&#45;&gt;[root] aws_route_table_association.rta_public_subnet_01 -->
<g id="edge16" class="edge"><title>[root] meta.count&#45;boundary (EachMode fixup)&#45;&gt;[root] aws_route_table_association.rta_public_subnet_01</title>
<path fill="none" stroke="black" d="M230.21,-432.233C250.187,-422.72 275.4,-410.714 296.823,-400.513"/>
<polygon fill="black" stroke="black" points="298.532,-403.576 306.056,-396.116 295.523,-397.256 298.532,-403.576"/>
</g>
<!-- [root] meta.count&#45;boundary (EachMode fixup)&#45;&gt;[root] output.aws_instance_public_dns -->
<g id="edge17" class="edge"><title>[root] meta.count&#45;boundary (EachMode fixup)&#45;&gt;[root] output.aws_instance_public_dns</title>
<path fill="none" stroke="black" d="M282.925,-434.24C346.696,-423.536 433.393,-408.982 501.791,-397.5"/>
<polygon fill="black" stroke="black" points="502.463,-400.937 511.745,-395.829 501.304,-394.033 502.463,-400.937"/>
</g>
<!-- [root] meta.count&#45;boundary (EachMode fixup)&#45;&gt;[root] output.aws_vpc_id -->
<g id="edge18" class="edge"><title>[root] meta.count&#45;boundary (EachMode fixup)&#45;&gt;[root] output.aws_vpc_id</title>
<path fill="none" stroke="black" d="M185.858,-431.87C175.936,-413.65 159.316,-384.18 143,-360 136.688,-350.646 129.273,-340.772 122.497,-332.114"/>
<polygon fill="black" stroke="black" points="125.21,-329.902 116.253,-324.243 119.726,-334.252 125.21,-329.902"/>
</g>
<!-- [root] meta.count&#45;boundary (EachMode fixup)&#45;&gt;[root] var.private_key_path -->
<g id="edge19" class="edge"><title>[root] meta.count&#45;boundary (EachMode fixup)&#45;&gt;[root] var.private_key_path</title>
<path fill="none" stroke="black" d="M164.341,-432.233C147.18,-422.848 125.581,-411.037 107.092,-400.925"/>
<polygon fill="black" stroke="black" points="108.751,-397.844 98.2982,-396.116 105.393,-403.985 108.751,-397.844"/>
</g>
<!-- [root] provider.aws (close) -->
<g id="node21" class="node"><title>[root] provider.aws (close)</title>
<ellipse fill="none" stroke="black" cx="502" cy="-450" rx="108.581" ry="18"/>
<text text-anchor="middle" x="502" y="-446.3" font-family="Times New Roman,serif" font-size="14.00">[root] provider.aws (close)</text>
</g>
<!-- [root] provider.aws (close)&#45;&gt;[root] aws_instance.ec2_jm -->
<g id="edge22" class="edge"><title>[root] provider.aws (close)&#45;&gt;[root] aws_instance.ec2_jm</title>
<path fill="none" stroke="black" d="M580.711,-437.553C634.507,-428.337 699.762,-413.974 721,-396 739.565,-380.288 749.285,-353.885 754.227,-333.908"/>
<polygon fill="black" stroke="black" points="757.646,-334.658 756.397,-324.137 750.812,-333.14 757.646,-334.658"/>
</g>
<!-- [root] provider.aws (close)&#45;&gt;[root] aws_route_table_association.rta_public_subnet_01 -->
<g id="edge23" class="edge"><title>[root] provider.aws (close)&#45;&gt;[root] aws_route_table_association.rta_public_subnet_01</title>
<path fill="none" stroke="black" d="M465.293,-432.941C443.057,-423.213 414.436,-410.691 390.368,-400.161"/>
<polygon fill="black" stroke="black" points="391.615,-396.886 381.05,-396.084 388.809,-403.299 391.615,-396.886"/>
</g>
<!-- [root] provisioner.remote&#45;exec (close) -->
<g id="node22" class="node"><title>[root] provisioner.remote&#45;exec (close)</title>
<ellipse fill="none" stroke="black" cx="778" cy="-450" rx="149.473" ry="18"/>
<text text-anchor="middle" x="778" y="-446.3" font-family="Times New Roman,serif" font-size="14.00">[root] provisioner.remote&#45;exec (close)</text>
</g>
<!-- [root] provisioner.remote&#45;exec (close)&#45;&gt;[root] aws_instance.ec2_jm -->
<g id="edge27" class="edge"><title>[root] provisioner.remote&#45;exec (close)&#45;&gt;[root] aws_instance.ec2_jm</title>
<path fill="none" stroke="black" d="M775.708,-431.871C772.47,-407.67 766.521,-363.211 762.665,-334.393"/>
<polygon fill="black" stroke="black" points="766.095,-333.637 761.3,-324.189 759.157,-334.565 766.095,-333.637"/>
</g>
<!-- [root] root -->
<g id="node23" class="node"><title>[root] root</title>
<ellipse fill="none" stroke="black" cx="502" cy="-522" rx="49.2915" ry="18"/>
<text text-anchor="middle" x="502" y="-518.3" font-family="Times New Roman,serif" font-size="14.00">[root] root</text>
</g>
<!-- [root] root&#45;&gt;[root] meta.count&#45;boundary (EachMode fixup) -->
<g id="edge28" class="edge"><title>[root] root&#45;&gt;[root] meta.count&#45;boundary (EachMode fixup)</title>
<path fill="none" stroke="black" d="M461.233,-511.705C413.568,-500.836 333.583,-482.599 273.7,-468.945"/>
<polygon fill="black" stroke="black" points="274.422,-465.52 263.895,-466.709 272.866,-472.344 274.422,-465.52"/>
</g>
<!-- [root] root&#45;&gt;[root] provider.aws (close) -->
<g id="edge29" class="edge"><title>[root] root&#45;&gt;[root] provider.aws (close)</title>
<path fill="none" stroke="black" d="M502,-503.697C502,-495.983 502,-486.712 502,-478.112"/>
<polygon fill="black" stroke="black" points="505.5,-478.104 502,-468.104 498.5,-478.104 505.5,-478.104"/>
</g>
<!-- [root] root&#45;&gt;[root] provisioner.remote&#45;exec (close) -->
<g id="edge30" class="edge"><title>[root] root&#45;&gt;[root] provisioner.remote&#45;exec (close)</title>
<path fill="none" stroke="black" d="M541.251,-511.045C584.314,-500.123 654.317,-482.369 707.057,-468.993"/>
<polygon fill="black" stroke="black" points="708.195,-472.315 717.027,-466.464 706.474,-465.53 708.195,-472.315"/>
</g>
</g>
</svg>
